<svg width="305" height="96" viewBox="0 0 305 96" fill="none" xmlns="http://www.w3.org/2000/svg">
<g clip-path="url(#clip0_1154_903)" filter="url(#filter0_d_1154_903)">
<path d="M106.21 0H108.13V87.44H106.21V0Z" fill="white"/>
<path fill-rule="evenodd" clip-rule="evenodd" d="M39.92 43.9999V25.9999H48.92C53.89 25.9999 57.92 30.0299 57.92 34.9999C57.92 39.9699 53.89 43.9999 48.92 43.9999H39.92ZM48.9 7.99993H4L22 25.9999V43.9999H4L22 61.9999V79.9999H40V61.9999H48.69L57.39 79.9999H75.39L64.39 57.2399C76.71 48.8899 79.93 32.1399 71.58 19.8299C66.49 12.3199 57.97 7.87993 48.9 7.99993Z" fill="#FF6700"/>
<path d="M293.1 28.25L286.94 39.8L280.77 28.25H272.76L283.36 46.41V58.37H290.35V46.45L300.94 28.25H293.1ZM271.15 43C272.06 41.49 272.53 39.76 272.51 38C272.51 36.67 272.27 35.36 271.79 34.12C271.3 32.88 270.51 31.79 269.49 30.93C268.3 29.96 266.92 29.23 265.44 28.8C263.49 28.24 261.47 27.97 259.44 28.02C257.66 28.02 256.06 28.07 254.64 28.16C253.22 28.25 251.86 28.38 250.57 28.51V58.37H257.57V48.51L258.84 48.57H260.75C260.95 48.58 261.14 48.58 261.34 48.57L266.48 58.39H274.41L267.34 46.76C268.92 45.86 270.23 44.56 271.15 43ZM263.76 41.73C262.6 42.56 261.19 42.98 259.76 42.9H258.7C258.4 42.9 258.01 42.9 257.55 42.8V34.5C258.04 34.42 258.48 34.36 258.86 34.33C259.24 34.3 259.71 34.33 260.26 34.33C261.55 34.26 262.82 34.63 263.87 35.38C264.77 36.08 265.28 37.18 265.23 38.32C265.32 39.65 264.77 40.93 263.75 41.79L263.76 41.73ZM235 28.25H228.01V58.37H247.08V52H235V28.25ZM210.59 28L196.42 58.37H203.52L205.79 52.9H216.18L218.44 58.37H225.71L211.54 28H210.59ZM208 47.56L211 40.33L214 47.56H208ZM195.44 28.25L188.57 44.52L181.71 28.25H173.7L188.08 58.61H188.9L203.28 28.25H195.44ZM162.95 28.25H169.93V58.36H162.95V28.25ZM155.89 43C156.8 41.49 157.27 39.76 157.25 38C157.25 36.67 157.01 35.36 156.53 34.12C156.04 32.89 155.25 31.79 154.23 30.94C153.05 29.97 151.69 29.24 150.23 28.8C148.28 28.24 146.26 27.97 144.23 28.02C142.45 28.02 140.85 28.07 139.43 28.16C138.01 28.25 136.65 28.38 135.36 28.51V58.37H142.36V48.51L143.63 48.57H145.54C145.74 48.58 145.93 48.58 146.13 48.57L151.27 58.39H159.2L152.13 46.76C153.69 45.85 154.98 44.56 155.89 43ZM148.5 41.73C147.34 42.56 145.93 42.98 144.5 42.9H143.44C143.14 42.9 142.75 42.9 142.29 42.8V34.5C142.72 34.42 143.16 34.37 143.6 34.34C143.98 34.34 144.45 34.29 145 34.29C146.29 34.22 147.56 34.59 148.61 35.34C149.53 36.03 150.04 37.13 150 38.28C150.09 39.61 149.54 40.89 148.52 41.75" fill="white"/>
</g>
<defs>
<filter id="filter0_d_1154_903" x="0" y="0" width="304.94" height="95.4399" filterUnits="userSpaceOnUse" color-interpolation-filters="sRGB">
<feFlood flood-opacity="0" result="BackgroundImageFix"/>
<feColorMatrix in="SourceAlpha" type="matrix" values="0 0 0 0 0 0 0 0 0 0 0 0 0 0 0 0 0 0 127 0" result="hardAlpha"/>
<feOffset dy="4"/>
<feGaussianBlur stdDeviation="2"/>
<feComposite in2="hardAlpha" operator="out"/>
<feColorMatrix type="matrix" values="0 0 0 0 0 0 0 0 0 0 0 0 0 0 0 0 0 0 0.25 0"/>
<feBlend mode="normal" in2="BackgroundImageFix" result="effect1_dropShadow_1154_903"/>
<feBlend mode="normal" in="SourceGraphic" in2="effect1_dropShadow_1154_903" result="shape"/>
</filter>
<clipPath id="clip0_1154_903">
<rect width="296.94" height="87.44" fill="white" transform="translate(4)"/>
</clipPath>
</defs>
</svg>
